<svg width="40" height="40" viewBox="0 0 28 28" fill="none" xmlns="http://www.w3.org/2000/svg">
<mask id="path-1-outside-1_2050_154" maskUnits="userSpaceOnUse" x="5.99994" y="5.9999" width="16" height="16" fill="black">
<rect fill="white" x="5.99994" y="5.9999" width="16" height="16"/>
<path d="M14.5283 13.4726H20.9999V14.5116H14.5283V20.9999H13.4892V14.5116H6.99994V13.4726H13.4892V6.9999H14.5283V13.4726Z"/>
</mask>
<path d="M14.5283 13.4726H20.9999V14.5116H14.5283V20.9999H13.4892V14.5116H6.99994V13.4726H13.4892V6.9999H14.5283V13.4726Z" fill="black"/>
<path d="M14.5283 13.4726H13.7483V14.2526H14.5283V13.4726ZM20.9999 13.4726H21.7799V12.6926H20.9999V13.4726ZM20.9999 14.5116V15.2916H21.7799V14.5116H20.9999ZM14.5283 14.5116V13.7316H13.7483V14.5116H14.5283ZM14.5283 20.9999V21.7799H15.3083V20.9999H14.5283ZM13.4892 20.9999H12.7092V21.7799H13.4892V20.9999ZM13.4892 14.5116H14.2692V13.7316H13.4892V14.5116ZM6.99994 14.5116H6.21994V15.2916H6.99994V14.5116ZM6.99994 13.4726V12.6926H6.21994V13.4726H6.99994ZM13.4892 13.4726V14.2526H14.2692V13.4726H13.4892ZM13.4892 6.9999V6.2199H12.7092V6.9999H13.4892ZM14.5283 6.9999H15.3083V6.2199H14.5283V6.9999ZM14.5283 13.4726V14.2526H20.9999V13.4726V12.6926H14.5283V13.4726ZM20.9999 13.4726H20.2199V14.5116H20.9999H21.7799V13.4726H20.9999ZM20.9999 14.5116V13.7316H14.5283V14.5116V15.2916H20.9999V14.5116ZM14.5283 14.5116H13.7483V20.9999H14.5283H15.3083V14.5116H14.5283ZM14.5283 20.9999V20.2199H13.4892V20.9999V21.7799H14.5283V20.9999ZM13.4892 20.9999H14.2692V14.5116H13.4892H12.7092V20.9999H13.4892ZM13.4892 14.5116V13.7316H6.99994V14.5116V15.2916H13.4892V14.5116ZM6.99994 14.5116H7.77994V13.4726H6.99994H6.21994V14.5116H6.99994ZM6.99994 13.4726V14.2526H13.4892V13.4726V12.6926H6.99994V13.4726ZM13.4892 13.4726H14.2692V6.9999H13.4892H12.7092V13.4726H13.4892ZM13.4892 6.9999V7.7799H14.5283V6.9999V6.2199H13.4892V6.9999ZM14.5283 6.9999H13.7483V13.4726H14.5283H15.3083V6.9999H14.5283Z" fill="white" mask="url(#path-1-outside-1_2050_154)"/>
</svg>
