<svg width="16" height="16" viewBox="0 0 16 16" fill="none" xmlns="http://www.w3.org/2000/svg">
<g id="v5/help_outline">
<path id="Vector" d="M7.33301 12H8.66634V10.6666H7.33301V12ZM7.99967 1.33331C4.31967 1.33331 1.33301 4.31998 1.33301 7.99998C1.33301 11.68 4.31967 14.6666 7.99967 14.6666C11.6797 14.6666 14.6663 11.68 14.6663 7.99998C14.6663 4.31998 11.6797 1.33331 7.99967 1.33331ZM7.99967 13.3333C5.05967 13.3333 2.66634 10.94 2.66634 7.99998C2.66634 5.05998 5.05967 2.66665 7.99967 2.66665C10.9397 2.66665 13.333 5.05998 13.333 7.99998C13.333 10.94 10.9397 13.3333 7.99967 13.3333ZM7.99967 3.99998C6.52634 3.99998 5.33301 5.19331 5.33301 6.66665H6.66634C6.66634 5.93331 7.26634 5.33331 7.99967 5.33331C8.73301 5.33331 9.33301 5.93331 9.33301 6.66665C9.33301 7.99998 7.33301 7.83331 7.33301 9.99998H8.66634C8.66634 8.49998 10.6663 8.33331 10.6663 6.66665C10.6663 5.19331 9.47301 3.99998 7.99967 3.99998Z" fill="#141415" fill-opacity="0.4"/>
</g>
</svg>
