<svg width="40" height="40" viewBox="0 0 28 28" fill="none" xmlns="http://www.w3.org/2000/svg">
<mask id="path-1-outside-1_2048_114" maskUnits="userSpaceOnUse" x="5.99988" y="5.99937" width="16" height="16" fill="black">
<rect fill="white" x="5.99988" y="5.99937" width="16" height="16"/>
<path d="M14.5282 13.472H20.9999V14.5111H14.5282V20.9994H13.4891V14.5111H6.99988V13.472H13.4891V6.99937H14.5282V13.472Z"/>
</mask>
<path d="M14.5282 13.472H20.9999V14.5111H14.5282V20.9994H13.4891V14.5111H6.99988V13.472H13.4891V6.99937H14.5282V13.472Z" fill="black"/>
<path d="M14.5282 13.472H13.7482V14.252H14.5282V13.472ZM20.9999 13.472H21.7799V12.692H20.9999V13.472ZM20.9999 14.5111V15.2911H21.7799V14.5111H20.9999ZM14.5282 14.5111V13.7311H13.7482V14.5111H14.5282ZM14.5282 20.9994V21.7794H15.3082V20.9994H14.5282ZM13.4891 20.9994H12.7091V21.7794H13.4891V20.9994ZM13.4891 14.5111H14.2691V13.7311H13.4891V14.5111ZM6.99988 14.5111H6.21988V15.2911H6.99988V14.5111ZM6.99988 13.472V12.692H6.21988V13.472H6.99988ZM13.4891 13.472V14.252H14.2691V13.472H13.4891ZM13.4891 6.99937V6.21937H12.7091V6.99937H13.4891ZM14.5282 6.99937H15.3082V6.21937H14.5282V6.99937ZM14.5282 13.472V14.252H20.9999V13.472V12.692H14.5282V13.472ZM20.9999 13.472H20.2199V14.5111H20.9999H21.7799V13.472H20.9999ZM20.9999 14.5111V13.7311H14.5282V14.5111V15.2911H20.9999V14.5111ZM14.5282 14.5111H13.7482V20.9994H14.5282H15.3082V14.5111H14.5282ZM14.5282 20.9994V20.2194H13.4891V20.9994V21.7794H14.5282V20.9994ZM13.4891 20.9994H14.2691V14.5111H13.4891H12.7091V20.9994H13.4891ZM13.4891 14.5111V13.7311H6.99988V14.5111V15.2911H13.4891V14.5111ZM6.99988 14.5111H7.77988V13.472H6.99988H6.21988V14.5111H6.99988ZM6.99988 13.472V14.252H13.4891V13.472V12.692H6.99988V13.472ZM13.4891 13.472H14.2691V6.99937H13.4891H12.7091V13.472H13.4891ZM13.4891 6.99937V7.77937H14.5282V6.99937V6.21937H13.4891V6.99937ZM14.5282 6.99937H13.7482V13.472H14.5282H15.3082V6.99937H14.5282Z" fill="white" mask="url(#path-1-outside-1_2048_114)"/>
<g clip-path="url(#clip0_2048_114)">
<path d="M24.6523 16.8477L26.6523 18.8477L26.5 19.2158H25.2002C25.1486 20.2764 24.9264 21.0173 24.6201 21.5742C24.2947 22.1659 23.8845 22.5344 23.5391 22.8447V22.8457C23.2641 23.0927 23.0669 23.2721 22.9307 23.5049C22.799 23.7299 22.7158 24.0219 22.7158 24.5V27L22.5 27.2158H21.5L21.2842 27V24.5C21.2842 24.0592 21.2124 23.777 21.0986 23.5605C20.9831 23.3409 20.8155 23.1697 20.585 22.959L20.5781 22.6475L21.2822 21.9424L21.5791 21.9346C21.7208 22.0621 21.8626 22.202 21.998 22.3623C22.187 22.135 22.3891 21.9483 22.5811 21.7793C22.897 21.496 23.1751 21.2437 23.3877 20.8467C23.5817 20.4841 23.7273 19.9857 23.7695 19.2158H22.5L22.3477 18.8477L24.3477 16.8477H24.6523ZM20.458 20.502C20.6056 20.9123 20.8112 21.1923 21.0439 21.4297L21.042 21.7324L20.332 22.4424L20.0264 22.4414C19.6675 22.0773 19.3173 21.6045 19.0801 20.8877L19.2324 20.6113L20.2021 20.3662L20.458 20.502ZM19.6523 16.8477L21.6523 18.8477L21.5 19.2158H20.2363C20.2467 19.4347 20.2627 19.6346 20.2881 19.8086L20.1279 20.0488L19.1582 20.2939L18.8926 20.1221C18.8451 19.8502 18.8171 19.5458 18.8027 19.2158H17.5L17.3477 18.8477L19.3477 16.8477H19.6523Z" fill="black" stroke="white" stroke-width="0.430769" stroke-linecap="round"/>
</g>
<defs>
<clipPath id="clip0_2048_114">
<rect width="12" height="12" fill="white" transform="translate(16 16)"/>
</clipPath>
</defs>
</svg>
