<svg xmlns="http://www.w3.org/2000/svg" width="10" height="10" viewBox="0 0 10 10" fill="none">
  <path d="M5 10C2.245 10 0 7.755 0 5C0 2.245 2.245 0 5 0C7.755 0 10 2.02 10 4.5C10 6.155 8.655 7.5 7 7.5H6.115C5.975 7.5 5.865 7.61 5.865 7.75C5.865 7.81 5.89 7.865 5.93 7.915C6.135 8.15 6.25 8.445 6.25 8.75C6.25 9.44 5.69 10 5 10ZM5 1C2.795 1 1 2.795 1 5C1 7.205 2.795 9 5 9C5.14 9 5.25 8.89 5.25 8.75C5.25 8.67 5.21 8.61 5.18 8.575C4.975 8.345 4.865 8.05 4.865 7.75C4.865 7.06 5.425 6.5 6.115 6.5H7C8.105 6.5 9 5.605 9 4.5C9 2.57 7.205 1 5 1Z" fill="white" fill-opacity="0.6"/>
  <path d="M2.25 5.5C2.66421 5.5 3 5.16421 3 4.75C3 4.33579 2.66421 4 2.25 4C1.83579 4 1.5 4.33579 1.5 4.75C1.5 5.16421 1.83579 5.5 2.25 5.5Z" fill="white" fill-opacity="0.6"/>
  <path d="M3.75 3.5C4.16421 3.5 4.5 3.16421 4.5 2.75C4.5 2.33579 4.16421 2 3.75 2C3.33579 2 3 2.33579 3 2.75C3 3.16421 3.33579 3.5 3.75 3.5Z" fill="white" fill-opacity="0.6"/>
  <path d="M6.25 3.5C6.66421 3.5 7 3.16421 7 2.75C7 2.33579 6.66421 2 6.25 2C5.83579 2 5.5 2.33579 5.5 2.75C5.5 3.16421 5.83579 3.5 6.25 3.5Z" fill="white" fill-opacity="0.6"/>
  <path d="M7.75 5.5C8.16421 5.5 8.5 5.16421 8.5 4.75C8.5 4.33579 8.16421 4 7.75 4C7.33579 4 7 4.33579 7 4.75C7 5.16421 7.33579 5.5 7.75 5.5Z" fill="white" fill-opacity="0.6"/>
</svg>