<svg xmlns="http://www.w3.org/2000/svg" width="12" height="12" viewBox="0 0 12 12" fill="none">
  <path d="M8.06749 6.5C8.06749 7 8.01749 7.425 7.91749 7.775C7.81749 8.125 7.67749 8.41 7.50249 8.625C7.32249 8.845 7.10749 9 6.85249 9.1C6.59749 9.2 6.31749 9.25 6.00249 9.25C5.69249 9.25 5.41249 9.2 5.15749 9.1C4.90249 9 4.68249 8.845 4.50249 8.625C4.32249 8.405 4.17749 8.12 4.07749 7.775C3.97749 7.425 3.92749 7 3.92749 6.5V5.48C3.92749 4.98 3.97749 4.555 4.07749 4.205C4.17749 3.855 4.31749 3.575 4.49749 3.36C4.67749 3.145 4.89749 2.99 5.15249 2.895C5.40249 2.8 5.68749 2.75 5.99749 2.75C6.31249 2.75 6.59249 2.8 6.84749 2.895C7.10249 2.99 7.32249 3.145 7.50249 3.36C7.68249 3.575 7.82249 3.855 7.92249 4.205C8.02249 4.555 8.07249 4.975 8.07249 5.48V6.5H8.06749ZM7.01249 5.32C7.01249 5 6.98749 4.73 6.94749 4.51C6.90249 4.29 6.83749 4.115 6.74749 3.98C6.66249 3.845 6.55249 3.75 6.42749 3.69C6.30249 3.625 6.15749 3.595 5.99749 3.595C5.83749 3.595 5.69249 3.625 5.56749 3.685C5.44249 3.745 5.33249 3.84 5.24749 3.975C5.16249 4.11 5.09249 4.285 5.04749 4.505C5.00249 4.725 4.98249 4.995 4.98249 5.315V6.65C4.98249 6.97 5.00749 7.24 5.05249 7.46C5.09749 7.685 5.16749 7.865 5.25249 8.005C5.33749 8.145 5.44749 8.245 5.57249 8.31C5.69749 8.375 5.84249 8.405 6.00749 8.405C6.17249 8.405 6.31749 8.375 6.44249 8.31C6.56749 8.245 6.67249 8.145 6.75749 8.005C6.84249 7.865 6.90749 7.685 6.95249 7.46C6.99749 7.235 7.01749 6.965 7.01749 6.65V5.32H7.01249Z" fill="white" fill-opacity="0.6"/>
</svg>