<svg xmlns="http://www.w3.org/2000/svg" viewBox="0 0 264.0 264.0" ><line stroke="currentColor" stroke-width="1.5" x1="1.25" y1="2.0" x2="130.8" y2="2.0"/><line stroke="currentColor" stroke-width="1.5" x1="1.25" y1="16.2" x2="130.8" y2="16.2"/><line stroke="currentColor" stroke-width="1.5" x1="1.25" y1="30.4" x2="130.8" y2="30.4"/><line stroke="currentColor" stroke-width="1.5" x1="1.25" y1="44.7" x2="130.8" y2="44.7"/><line stroke="currentColor" stroke-width="1.5" x1="1.25" y1="58.9" x2="130.8" y2="58.9"/><line stroke="currentColor" stroke-width="1.5" x1="1.25" y1="73.1" x2="130.8" y2="73.1"/><line stroke="currentColor" stroke-width="1.5" x1="1.25" y1="87.3" x2="130.8" y2="87.3"/><line stroke="currentColor" stroke-width="1.5" x1="1.25" y1="101.6" x2="130.8" y2="101.6"/><line stroke="currentColor" stroke-width="1.5" x1="1.25" y1="115.8" x2="130.8" y2="115.8"/><line stroke="currentColor" stroke-width="1.5" x1="1.25" y1="130.0" x2="130.8" y2="130.0"/><line stroke="currentColor" stroke-width="1.5" y1="2" x1="2.0" y2="130.8" x2="2.0"/><line stroke="currentColor" stroke-width="1.5" y1="2" x1="16.2" y2="130.8" x2="16.2"/><line stroke="currentColor" stroke-width="1.5" y1="2" x1="30.4" y2="130.8" x2="30.4"/><line stroke="currentColor" stroke-width="1.5" y1="2" x1="44.7" y2="130.8" x2="44.7"/><line stroke="currentColor" stroke-width="1.5" y1="2" x1="58.9" y2="130.8" x2="58.9"/><line stroke="currentColor" stroke-width="1.5" y1="2" x1="73.1" y2="130.8" x2="73.1"/><line stroke="currentColor" stroke-width="1.5" y1="2" x1="87.3" y2="130.8" x2="87.3"/><line stroke="currentColor" stroke-width="1.5" y1="2" x1="101.6" y2="130.8" x2="101.6"/><line stroke="currentColor" stroke-width="1.5" y1="2" x1="115.8" y2="130.8" x2="115.8"/><line stroke="currentColor" stroke-width="1.5" y1="2" x1="130.0" y2="130.8" x2="130.0"/><rect fill="currentColor" x="3.5" y="3.5" width="11.2" height="11.2"/><rect fill="currentColor" x="117.3" y="3.5" width="11.2" height="11.2"/><rect fill="currentColor" x="3.5" y="17.7" width="11.2" height="11.2"/><rect fill="currentColor" x="17.7" y="17.7" width="11.2" height="11.2"/><rect fill="currentColor" x="117.3" y="17.7" width="11.2" height="11.2"/><rect fill="currentColor" x="3.5" y="31.9" width="11.2" height="11.2"/><rect fill="currentColor" x="31.9" y="31.9" width="11.2" height="11.2"/><rect fill="currentColor" x="117.3" y="31.9" width="11.2" height="11.2"/><rect fill="currentColor" x="3.5" y="46.2" width="11.2" height="11.2"/><rect fill="currentColor" x="46.2" y="46.2" width="11.2" height="11.2"/><rect fill="currentColor" x="117.3" y="46.2" width="11.2" height="11.2"/><rect fill="currentColor" x="3.5" y="60.4" width="11.2" height="11.2"/><rect fill="currentColor" x="60.4" y="60.4" width="11.2" height="11.2"/><rect fill="currentColor" x="117.3" y="60.4" width="11.2" height="11.2"/><rect fill="currentColor" x="3.5" y="74.6" width="11.2" height="11.2"/><rect fill="currentColor" x="74.6" y="74.6" width="11.2" height="11.2"/><rect fill="currentColor" x="117.3" y="74.6" width="11.2" height="11.2"/><rect fill="currentColor" x="3.5" y="88.8" width="11.2" height="11.2"/><rect fill="currentColor" x="88.8" y="88.8" width="11.2" height="11.2"/><rect fill="currentColor" x="117.3" y="88.8" width="11.2" height="11.2"/><rect fill="currentColor" x="3.5" y="103.1" width="11.2" height="11.2"/><rect fill="currentColor" x="103.1" y="103.1" width="11.2" height="11.2"/><rect fill="currentColor" x="117.3" y="103.1" width="11.2" height="11.2"/><rect fill="currentColor" x="3.5" y="117.3" width="11.2" height="11.2"/><rect fill="currentColor" x="117.3" y="117.3" width="11.2" height="11.2"/><line stroke="currentColor" stroke-width="1.5" x1="133.25" y1="134.0" x2="262.8" y2="134.0"/><line stroke="currentColor" stroke-width="1.5" x1="133.25" y1="148.2" x2="262.8" y2="148.2"/><line stroke="currentColor" stroke-width="1.5" x1="133.25" y1="162.4" x2="262.8" y2="162.4"/><line stroke="currentColor" stroke-width="1.5" x1="133.25" y1="176.7" x2="262.8" y2="176.7"/><line stroke="currentColor" stroke-width="1.5" x1="133.25" y1="190.9" x2="262.8" y2="190.9"/><line stroke="currentColor" stroke-width="1.5" x1="133.25" y1="205.1" x2="262.8" y2="205.1"/><line stroke="currentColor" stroke-width="1.5" x1="133.25" y1="219.3" x2="262.8" y2="219.3"/><line stroke="currentColor" stroke-width="1.5" x1="133.25" y1="233.6" x2="262.8" y2="233.6"/><line stroke="currentColor" stroke-width="1.5" x1="133.25" y1="247.8" x2="262.8" y2="247.8"/><line stroke="currentColor" stroke-width="1.5" x1="133.25" y1="262.0" x2="262.8" y2="262.0"/><line stroke="currentColor" stroke-width="1.5" y1="134.0" x1="134.0" y2="262.8" x2="134.0"/><line stroke="currentColor" stroke-width="1.5" y1="134.0" x1="148.2" y2="262.8" x2="148.2"/><line stroke="currentColor" stroke-width="1.5" y1="134.0" x1="162.4" y2="262.8" x2="162.4"/><line stroke="currentColor" stroke-width="1.5" y1="134.0" x1="176.7" y2="262.8" x2="176.7"/><line stroke="currentColor" stroke-width="1.5" y1="134.0" x1="190.9" y2="262.8" x2="190.9"/><line stroke="currentColor" stroke-width="1.5" y1="134.0" x1="205.1" y2="262.8" x2="205.1"/><line stroke="currentColor" stroke-width="1.5" y1="134.0" x1="219.3" y2="262.8" x2="219.3"/><line stroke="currentColor" stroke-width="1.5" y1="134.0" x1="233.6" y2="262.8" x2="233.6"/><line stroke="currentColor" stroke-width="1.5" y1="134.0" x1="247.8" y2="262.8" x2="247.8"/><line stroke="currentColor" stroke-width="1.5" y1="134.0" x1="262.0" y2="262.8" x2="262.0"/><rect fill="currentColor" x="178.2" y="135.5" width="11.2" height="11.2"/><rect fill="currentColor" x="192.4" y="135.5" width="11.2" height="11.2"/><rect fill="currentColor" x="206.6" y="135.5" width="11.2" height="11.2"/><rect fill="currentColor" x="163.9" y="149.7" width="11.2" height="11.2"/><rect fill="currentColor" x="220.8" y="149.7" width="11.2" height="11.2"/><rect fill="currentColor" x="149.7" y="163.9" width="11.2" height="11.2"/><rect fill="currentColor" x="135.5" y="178.2" width="11.2" height="11.2"/><rect fill="currentColor" x="135.5" y="192.4" width="11.2" height="11.2"/><rect fill="currentColor" x="206.6" y="192.4" width="11.2" height="11.2"/><rect fill="currentColor" x="220.8" y="192.4" width="11.2" height="11.2"/><rect fill="currentColor" x="235.1" y="192.4" width="11.2" height="11.2"/><rect fill="currentColor" x="249.3" y="192.4" width="11.2" height="11.2"/><rect fill="currentColor" x="135.5" y="206.6" width="11.2" height="11.2"/><rect fill="currentColor" x="249.3" y="206.6" width="11.2" height="11.2"/><rect fill="currentColor" x="149.7" y="220.8" width="11.2" height="11.2"/><rect fill="currentColor" x="235.1" y="220.8" width="11.2" height="11.2"/><rect fill="currentColor" x="163.9" y="235.1" width="11.2" height="11.2"/><rect fill="currentColor" x="220.8" y="235.1" width="11.2" height="11.2"/><rect fill="currentColor" x="178.2" y="249.3" width="11.2" height="11.2"/><rect fill="currentColor" x="192.4" y="249.3" width="11.2" height="11.2"/><rect fill="currentColor" x="206.6" y="249.3" width="11.2" height="11.2"/></svg>
